<svg xmlns="http://www.w3.org/2000/svg" viewBox="0 0 424.7 97.13">
    <path d="M175.16 81.98c2.58.16 5.18.33 7.77.54-1.3-.16-2.58-.35-3.9-.61-1.69-.21-2.59-.05-3.87.07Zm14.96 1.11c.47.04.94.08 1.38.12.42 0 .82 0 1.19.01-.85-.04-1.71-.09-2.56-.13Zm13.54.95c-2.38-.28-4.67-.45-6.89-.59 1.94.25 4.21.46 6.89.59Z"/>
    <path d="M192.91 82.84c.82.21 1.21.4-.17.39h-.06c1.35.07 2.69.14 4.09.22-1.45-.18-2.75-.39-3.87-.6Zm0 0c-.79-.21-2.06-.44-2.49-.55.72.18 1.56.37 2.49.55Zm3.7-3.09c1.38 0 .97.94 3.7.98 6.37.31 11.84.44 17.77 1.07 2.72.07 6.87 1.6 9.58 1.68 6.38.43 22.71 1.04 13.16-.01-14.36-1.51-23.76-2.3-36.7-3.38-10.54-.61-20.69-.98-31.51-1.18-3.03-.11-5.85-.3-8.69-.44 3.71.26 7.51.57 11.71.95 5.52.57 12.29-.2 20.97.34Zm-78.52 4.02c.64-.21 1.61-.49 2.44-.69.82-.22 1.48-.39 1.48-.39 6.05-.35 12.29-1.22 18.63-1.81-.93-.1-1.88-.21-2.84-.32-3.63.31-4.02.64-.79.58-7.4-.06-14.41.74-21.38 2.47.5.16.48.47 2.46.16Zm-6.51.98c1.35-.39 2.7-.81 4.04-1.15-.04-.02-.11-.03-.17-.05-1.36.39-2.71.82-4.03 1.22.05 0 .1-.01.15-.02Z"/>
    <path d="M232.41 86.2c17.96 2.08 34.87 4.04 51.38 5.96 1.29-.05 2.2-.17 3.9.12 1.27.3 2.56.54 3.85.74 2.42.25 4.83.51 7.22.76.84.05 1.69.11 2.56.16h.07c1.37.02.98-.17.15-.39-.93-.19-1.78-.39-2.5-.58.46.12 1.69.37 2.5.58 1.13.23 2.39.44 3.87.62 2.21.13 4.52.3 6.9.54-2.66-.09-4.94-.3-6.9-.54-1.4-.08-2.74-.16-4.09-.24-.39 0-.78-.01-1.18-.02 5.51.57 11 1.06 16.5 1.52 1.27.06 2.48.12 3.47.16 4 .14 7.98.24 10.43.82.97.06 1.97.12 2.96.17-.18-.04-.38-.08-.57-.11.44.05.81.1 1.11.14 4.16.2 8.34.38 12.55.45 2.72-.14 5.52-.39 8.31-.56 0 0 1.9.27 2.83.41 1.13-.27 2.76-.46 4.65-.65-2.27-.15-4.33-.45-6.25-.59-2.81-.43-6.27 1.05-9.58.1 3.31.95 6.78-.53 9.58-.1 1.92.13 3.98.43 6.25.59 3.95-.31 9.06-.58 13.24-.57-5.08.97-9.45.9-13.24.57-1.9.19-3.52.38-4.65.65-.93-.13-2.83-.41-2.83-.41-2.8.17-5.6.42-8.31.56 8.2.15 16.51.08 24.99-.64 6.81-.56 13.56-1.5 20.15-3.13 1.65-.4 3.27-.9 4.9-1.38 1.6-.57 3.23-1.05 4.79-1.74 3.17-1.23 6.2-2.85 9.06-4.74 2.89-1.86 5.45-4.25 7.66-6.91.52-.69 1.12-1.33 1.57-2.08l1.39-2.21c.77-1.55 1.6-3.09 2.12-4.75.29-.82.61-1.63.79-2.47l.63-2.59c.22-2-.03-3.82-.55-5.59-1.07-3.53-3.15-6.48-5.47-9.04-4.75-5.06-10.53-8.78-16.53-11.89-6.04-3.08-12.37-5.57-18.88-7.6-13.03-4.06-26.72-6.54-40.88-7.85-30.72-2.82-60.49-.3-89.01 4.96a362.185 362.185 0 0 0-41.35 10.36c-6.68 2.1-13.29 4.31-19.81 6.72-3.23 1.16-6.45 2.31-9.68 3.47l-4.82 1.72-4.86 1.6c-12.94 4.29-26.09 8.04-39.59 10.8-13.48 2.79-27.34 4.63-41.45 4.8-1.35.03-2.78.05-4.26.08-1.48-.02-3.03-.03-4.63-.05-.8 0-1.61 0-2.43-.01-.82-.04-1.65-.07-2.5-.11-1.69-.09-3.42-.11-5.18-.24-7.04-.44-14.57-1.42-21.86-3.07-.92-.18-1.82-.42-2.72-.66-.9-.24-1.8-.47-2.7-.71-1.79-.49-3.52-1.09-5.26-1.62-1.7-.63-3.4-1.22-5.03-1.88-1.61-.71-3.24-1.32-4.74-2.09-6.12-2.89-11.34-6.22-15.31-9.3-5.56-3.82-8.96-6.53-11.3-7.88-2.32-1.38-3.41-1.47-3.71-.9-.62 1.14 1.55 4.74 1.96 5.28 5.15 7.36 11.28 12.92 20.31 18.12 4.53 2.59 9.8 5.06 16.21 7.36 6.41 2.29 13.96 4.4 23.06 6.06-.78-.13-1.48-.25-2.13-.36-.64-.14-1.22-.28-1.73-.39-1.03-.24-1.82-.44-2.38-.61-1.13-.33-1.36-.5-.88-.53.96-.09 4.75.48 10.06.96 1.32.17 2.75.25 4.24.35 1.49.1 3.06.25 4.68.34 3.24.1 6.69.36 10.17.35 6.97.2 14.07-.03 19.99-.02 17.15 0 37.67-4.03 58.24-10.48 10.34-3.11 20.67-6.95 30.9-10.77 10.01-3.84 20.06-7.22 29.91-9.9 9.84-2.69 20.29-5.56 32.22-7.98 15.51-2.88 30.87-4.89 46.17-5.87 7.65-.5 15.29-.71 22.91-.62 7.63.08 15.24.48 22.82 1.25s15.14 1.92 22.61 3.56c7.46 1.66 14.85 3.77 21.94 6.62 3.54 1.43 6.99 3.04 10.28 4.88 3.29 1.83 6.41 3.92 9.12 6.27 2.66 2.34 4.99 5.04 6.03 7.64.24.64.46 1.27.54 1.85l.08.44.02.42c0 .14.04.28.01.41v.2c-.02.06-.02.05-.02.08v.05l-.05.19-.16.63-.31 1.27c-.22.84-.57 1.62-.84 2.44-1.32 3.38-3.3 6.29-5.8 8.77-2.5 2.48-5.5 4.52-8.71 6.22-6.43 3.4-13.56 5.5-20.68 6.89-5.23.93-10.76 1.39-16.07 1.62-5.31.22-10.39.17-14.79.2-13.84-.03-25.83-.45-37.34-.92 6.42.42 11.97.68 17.7.86 5.73.18 11.64.3 18.75.25 4.74-.05 3.1.28-.53.62-3.63.34-9.26.61-12.42.61-2.72.13-6.91-1.15-9.63-1.09-5.88-.33-11.31-.31-17.65-.55-2.73-.02-2.33-.95-3.69-.96-8.62-.55-15.38-.01-20.86-.85-4.16-.59-7.91-1.15-11.57-1.71-2.32-.32-4.62-.62-7.08-.86-1.53-.1-3.12-.2-4.71-.3 1.22.44 1.63.84 2 1.25-2.27-.31-5.45-.9-7.72-1.21 2.27.32 5.45.9 7.72 1.21-.38-.41-.79-.82-2-1.25-11.4-.75-24.53-1.8-36.75-2.73.05.03.11.07.15.1 7.13.69 14.06 1.57 21.37 3.01-3.17-.58-2.74-.8.9-.43.91.27 1.83.54 2.73.8-6.37-.47-12.72-.94-18.65-2.3 0 0-2.74-.09-4.09-.13-1.99-.35-1.87-.64-2.26-.95-1.39-.13-2.8-.25-4.21-.38 2.91.79 12.18 2.45 12.18 2.45Z"/>
    <path d="M305.57 94.21c-.97-.05-2.17-.13-3.44-.23 4.61.47 9.22.89 13.86 1.29-2.42-.66-6.41-.83-10.41-1.06ZM370.57 55.96c-.14.17-.31.33-.43.52.11-.07.27-.1.47-.09.17-.04.04-.23-.04-.44Zm-.76 1.06s-.03.07-.05.11c.01.04.03.09.05.12v-.23Zm-.04 1.14c.09-.18.07-.35.06-.54-.12.13-.14.32-.06.54Z"/>
    <path d="M370.19 57.4c-.15.01-.31 0-.38-.14s.02.35.02.35c.09-.1.21-.17.35-.21Zm0 0c.15-.01.3-.06.38-.05-.13 0-.26.02-.38.05Zm3.2 1.13c.1.04-.84-.2-.64-.07.23.23.66.36.67.52.22.04-.83.3-.59.4.15.1.58.24.96.27.37.03.67-.02.61-.15-.26-.39-.53-.59-.68-.8-.36-.18-.79-.46-.86-.9.03-.08.12-.09.22-.07-.16-.06-.34-.1-.54-.09-.15 0-.04.21.2.43.22.21.55.39.64.46Zm1.13-3.71-.22.34c-.45-.64-.87-.31-1.18.08l.3.41c.19-.11.17-.37-.08-.53.6.47.97.5 1.39.38-.04-.26-.06-.56-.19-.68Z"/>
    <path d="M374.95 55.4c-.08.04-.16.07-.24.1v.08c.09-.05.17-.11.25-.16v-.02Z"/>
    <path d="M370.74 60.04c.28 1.06.67 1.99 1.09 2.9.2-.03.41-.1.37.05-.1.15-.15.27-.16.38l.2.39s.1.06.15.08c.14 0 .24-.1.33-.22.05-.1.12-.21.2-.32-.05.07-.12.19-.2.32-.06.12-.09.24-.09.34.13.07.23.16.27.31-.19-.05-.26-.17-.27-.31-.08-.04-.17-.08-.25-.12h-.11c.16.28.31.59.49.87.07.04.13.09.19.11.25.11.5.19.25.62l.1.15s.03-.05.04-.08c0 .04-.01.08-.02.11.14.22.29.42.44.64.24 0 .53-.06.74-.04 0 0-.13.31-.2.47.21-.13.39-.18.53-.17.09-.3.22-.62.27-.84.22-.45-.93.45-.43-.33-.5.79.65-.12.43.33-.05.22-.18.53-.27.84.29.02.4.35.31.87-.5.12-.46-.37-.31-.87-.14-.01-.31.04-.53.17.07-.16.2-.47.2-.47-.21-.01-.5.04-.74.04.3.41.62.82.98 1.22 1.16 1.32 2.48 2.32 4.42 2.96 1.87.66 4.01.39 5.95-.63 1.06-.53 2.08-1.3 2.88-2.05.82-.77 1.57-1.61 2.25-2.54.68-.93 1.08-2.02 1.3-3.16.21-1.15.24-2.32.03-3.63-.2-1.3-.58-2.59-1.15-3.89-.58-1.29-1.34-2.58-2.35-3.97-.85-1.08-2.4-1.84-3.87-2.2-1.45-.32-2.81-.32-3.68-.3-1.19.77-1.37 2.21-1.32 3.46.06 1.26.32 2.35.35 2.47.51 1.76.85 2.14 1.31 2.42.23.12.49.21.73.43.26.2.51.55.63 1.13-.23-.68.04-1.19.52-1.17.43.05.95.66.35 1.79-.43.82-.78 1.22-.95 1.42-.17.19-.18.21-.08.23.08.03.27.02.36.25.1.19.09.45-.19.65-.27.19-.18.48-.36.76-.44.26-.74.49-.94.69-.05.05-.09.11-.13.15-.03.03.01.02 0 .04.01.02.03.06.05.11.09.21-.15.58-.31.34-.37-.15-1.3.34-2.09.36-.47-.13-.52-.83-.78-1.07-.41-.4-.99-.54-1.63-.68.49.33.95.47 1.47.79.34.24-1.06.69-1.48.63-.25.04.42-.81.18-.76-.17-.2-.66-.12-1.06-.2-.25.02.54-.53.41-.52-.4-.17-1.6.22-1.52-.15.03-.25.06-.47.12-.69 0-.12 0-.23-.09-.31l-.3-.09c-.25.17-.57.34-.89.51 0-.13.14-.36.14-.47 0 .12-.14.35-.14.47.32-.17.64-.34.89-.51-.72-.23-1.41-.65-1.9-1.18l-.08.02c.15.34.13.66-.29 1.24.14-.24.41-.29.52-.13l-.4.3c-.38-.23-.75-.56-.14-1.03 0 0-.24-.11-.36-.16.11-.13.41-.17.66-.22-.03-.07-.06-.13-.09-.2-.23.09-.49.29-.67.48-.18.19-.31.36-.31.36Z"/>
    <path d="M372.61 63.98a.94.94 0 0 1-.18-.12c.13.25.25.5.39.74.27-.4.03-.5-.21-.62ZM332.15 82.83l-.55-.45c.06.11.11.25.13.43.07.16.24.07.42.02Zm-1.05-.87-.1-.08h-.13c.08.02.15.05.22.08Zm-1.12-.58c.15.16.33.27.53.35a.92.92 0 0 0-.53-.35Z"/>
    <path d="M330.67 82.11c0-.13.05-.25.2-.24s-.36-.14-.36-.14c.08.11.13.24.16.38Zm0 0c0 .13.03.28.02.35 0-.12 0-.24-.02-.35Zm-1.88 1.93c-.16-.01.33-.59.02-.61-.62-.18-1.23-.25-1.67-.63-.31-.04-.08-.95-.38-.99-.59-.23-2.47-.52-1.74.06 1.15.83 1.95 1.31 3.02 1.96 1 .36 1.99.64 2.97 1.02.25.14.43.35.62.55-.22-.3-.44-.61-.69-.94-.29-.48-1.37-.07-2.15-.43Zm7.49 2.07c-.15 0-.45.02-.45.02-.18-.76-.78-.89-1.39-1.03v.46c.32.14.47-.01.31-.31.33.75.84 1.16 1.44 1.46.07-.2.2-.4.1-.58Z"/>
    <path d="M336.54 86.85c-.12-.05-.24-.11-.36-.16l-.02.06c.13.04.26.08.38.12v-.02Zm-9.01-6.64c-1.32-1.02-2.32-2.24-3.35-3.36-.19.01-.38.07-.42-.11.02-.18.01-.33-.02-.46l-.38-.54-.19-.15c-.14-.05-.21.06-.25.19 0 .12-.03.24-.07.36.02-.07.03-.23.07-.36 0-.14 0-.28-.06-.41-.16-.13-.32-.28-.42-.48.22.14.35.3.42.48l.31.23.12.04-.85-1.25c-.09-.08-.17-.15-.25-.21-.29-.24-.56-.5-.37-.89l-.12-.24s-.02.05-.03.08v-.12l-.52-1c-.25-.14-.56-.25-.75-.44 0 0 .15-.27.23-.41-.21 0-.39-.08-.52-.21-.11.29-.26.57-.32.81-.23.43.93.15.48.76.45-.61-.71-.33-.48-.76.06-.24.2-.52.32-.81-.27-.27-.36-.75-.18-1.23.49.29.37.75.18 1.23.13.13.31.21.52.21-.07.13-.23.41-.23.41.19.19.5.3.75.44-.18-.32-.32-.66-.44-1.01l-.39-1.05c-.75-2.28-1.24-4.51-1.16-6.77.04-2.24.5-4.51 1.51-6.71 1.15-2.37 2.77-4.39 4.6-6.1 1.83-1.69 3.39-3.46 5.21-5.04 1.81-1.57 3.84-2.98 6.43-3.72 1.93-.63 4.7-2.92 6.26-3.9 1.45-2.28-1.15-4.52-1.38-4.61-1.39-.8-2.21-.68-3.11-.31-.91.36-1.91.98-3.79 1.28 2.44-.53-.39 2.37-3.27 2.24-2.15-.15-3.84 1.01-5.31 2.53-1.5 1.5-2.76 3.37-4.43 4.67-.81.69-1.46 1.6-2.25 2.61-4.72 4.71-6.86 11.88-6.03 19.61.2 1.01.49 1.95.96 2.75.49.8 1 1.52 1.44 2.22.61 1 .79 2.31 1.25 3.15.39.63.82 1.18 1.26 1.67.22.25.44.48.67.7.24.2.49.38.74.57l-.67-.67c-.2-.23-.39-.46-.58-.69-.39-.46-.79-.95-1.24-1.56-.57-.83 1.21.12 1.73.53.29.14-.18.96.11 1.11.31.53.95.73 1.51 1.1.3.11-.31.55-.16.6.69.58 1.81.48 2.02 1 .2.37.37.71.54 1.05.13.19.26.38.45.53.15.06.3.13.46.2.08-.25.25-.48.42-.71.12.18.22.53.34.71-.12-.19-.22-.53-.34-.71-.17.23-.34.46-.42.71 1.06.52 2.31.99 3.38 1.5l.03-.06c-.56-.38-1.01-.87-1.22-1.65.11.32-.06.45-.35.26l.06-.45c.59.24 1.18.45 1.24 1.23l.45.06c.07.2-.09.38-.19.56.11.08.22.15.34.21.03-.47-.31-1.4-.31-1.4Z"/>
    <path d="M322.87 75.34c.08.05.16.13.24.21l-.71-1.06c-.16.39.16.62.47.85ZM195.87 30.96c-.28-.32-.49-.63-.63-1 .03.19.09.38.13.61.12.25.28.3.51.39Zm-.81-2.04c0-.07 0-.14.01-.2-.02-.07-.01-.13-.02-.19-.02.13 0 .26 0 .39Zm1.02-1.65c-.35.16-.64.38-.83.67.22-.22.49-.43.83-.67Zm-1.23 1.16c.11-.11.2-.13.21.09.01-.2.09-.4.2-.58-.17.16-.31.33-.41.49Zm0 0c-.11.1-.18.31-.23.38.07-.12.13-.25.23-.38Z"/>
    <path d="M193.55 27.09c.18-.31.5-.02.9-.52.53-.53 1.26-.97 1.84-1.25.56-.28 1.12-.5 1.72-.63.53-.24 1.47.12 1.98-.06 1.22-.36 4.36-1.3 2.47-1.09-1.42.19-2.6.41-3.75.69-.57.14-1.14.31-1.73.5-.3.11-.6.21-.91.35-.33.13-.78.35-1.15.57-.6.41-1.13.89-1.44 1.5-.34.6-.34 1.32-.26 1.98.06.67.34 1.31.7 1.86.17.28.4.53.62.78.23.22.43.42.67.6.49.42.94.8 1.4 1.14-.58-.48-1.18-1.01-1.74-1.73-.36-.51-.88-1.02-1.25-1.81-.19-.39-.33-.84-.37-1.34-.07-.5 0-1.06.3-1.54Zm5.48 11.63c.11-.09.26-.22.4-.33l.21-.21c.69-.22 1.27-.63 1.65-1.16.18-.26.32-.58.27-.92-.03-.33-.21-.64-.46-.87.04.16.05.33.05.51.06.17.11.3.11.4.02.1.04.16.05.17.04.04.16-.1.15-.43.02.38-.18.75-.43 1.03-.26.28-.55.51-.85.7-.6.41-1.2.72-1.8 1.07.16.07.22.21.65.04Zm-1.37.35c.24-.13.48-.27.72-.39-.01 0-.03-.01-.05-.02-.24.14-.47.28-.7.42h.03Z"/>
    <path d="M201.12 25.54c3.45-.47 6.74-.59 9.95-.66.24-.1.41-.22.75-.17.25.08.51.12.76.15.47 0 .94 0 1.4-.01.16-.02.33-.03.49-.05h.01c.26-.06.18-.14.02-.2-.18-.05-.35-.1-.49-.16.09.04.33.1.49.16.22.06.47.1.76.12.43-.04.87-.07 1.34-.04-.51.07-.95.07-1.34.04-.27.03-.53.06-.79.08-.07.02-.15.03-.23.05h3.2c.24-.02.48-.04.67-.05.77-.08 1.54-.15 2.02.07h.57c-.04-.01-.07-.03-.11-.04.08.02.15.03.22.04l2.42.03c.52-.1 1.06-.22 1.6-.29 0 0 .37.16.55.23.22-.12.53-.21.9-.25-.44-.14-.84-.29-1.21-.38-.55-.23-1.21.5-1.85.05.65.44 1.31-.29 1.85-.05.37.09.77.25 1.21.38.76-.1 1.75-.02 2.55.2-.99.22-1.82.03-2.55-.2-.37.05-.68.13-.9.25-.18-.08-.55-.23-.55-.23-.54.08-1.08.2-1.6.29l4.81.06c5.25.07 10.31.03 15.42-.19 2.55-.11 5.12-.26 7.74-.48 2.59-.23 5.35-.43 8.1-1.43 1.48-.52 3.02-1.3 4.15-2.7 1.14-1.41 1.51-3.32 1.39-4.93-.27-3.24-1.62-5.93-2.22-8.4-.15-.66-.2-1-.16-1.25.02-.28.15-.55.38-.7.22-.16.49-.2.75-.24l.8-.05.88.02c2.54.15 5.16.37 7.72.79 5.14.77 10.25 2.08 15.26 4.27 1.91.85 4.71 1.83 7.36 3.01 2.66 1.15 5.16 2.47 6.68 3.51.54.28 1.04.47 1.42.62.37.15.69.24.95.27.54.07.89-.07 1.09-.31.41-.47.21-1.38.14-1.52-.7-1.82-1.98-2.87-3.65-4.01-1.72-1.07-3.89-2.22-7.01-4.02 2.13 1.21 1.2 1.09-.74.4-1.94-.71-4.93-1.87-6.95-3.08-2.92-1.8-6.86-2.85-11.04-3.48-1.04-.17-2.11-.3-3.18-.41-1.07-.13-2.15-.22-3.22-.3-1.07-.1-2.15-.16-3.21-.23-.54-.03-1.02-.1-1.65-.1l-.92-.02c-.31 0-.65.03-.97.04l-.49.03c-.2.03-.46.08-.69.13-.47.12-.95.22-1.37.45-.43.21-.87.43-1.22.77-.18.16-.38.3-.54.49-.15.19-.3.39-.44.6-.5.85-.78 1.86-.75 2.93 0 .55.08 1.03.17 1.54.05.28.09.43.14.61l.14.53c.47 1.76 1.04 3.17 1.47 4.52.44 1.32.72 2.55.73 3.46 0 .23-.03.41-.04.6-.06.15-.05.34-.14.45-.03.07-.05.14-.08.21-.05.06-.09.12-.13.18-.04.14-.23.25-.32.39-.52.54-1.58 1.07-2.76 1.45-1.17.41-2.55.65-3.93.87-1.43.21-2.96.37-4.47.52-3.04.29-6.15.48-9.38.56-3.41.13-6.42.64-9.31.93-2.11.12-4.38-.09-6.1-.07-2.71.04-5.05.23-7.29.49 2.5-.13 4.33-.28 7.11-.39 1.86-.05-1.28.63-2.51.78-.53.11-1.36-.41-1.89-.29-1.15.02-2.2.25-3.43.41-.53.12-.47-.36-.74-.31-1.68.14-2.96.8-4.04.7-.82-.05-1.56-.09-2.28-.13-.46 0-.91 0-1.39.04-.3.06-.6.11-.91.17.25.13.35.3.45.48-.45 0-1.08-.07-1.53-.06.45 0 1.08.06 1.53.06-.09-.18-.19-.35-.45-.48-2.2.42-4.75.88-7.08 1.51l.04.04c1.37-.3 2.74-.41 4.2-.26-.63-.05-.57-.19.14-.28l.56.19c-1.22.24-2.42.5-3.63.33 0 0-.51.19-.76.28-.4 0-.41-.15-.51-.26-.27.06-.54.12-.81.2.63.09 2.46.13 2.46.13Z"/>
    <path d="M215.29 24.73c-.19.01-.42.03-.66.05.89 0 1.79 0 2.69.01-.48-.22-1.25-.15-2.02-.07Z"/>
</svg>
