<?xml version="1.0" encoding="UTF-8"?><svg id="a" xmlns="http://www.w3.org/2000/svg" viewBox="0 0 512 369.87"><path d="M189.23,213.66c0,5.41-5.06,9.8-11.31,9.8s-11.32-4.39-11.32-9.8,5.07-9.8,11.32-9.8,11.31,4.38,11.31,9.8ZM392.86,118.98c.51.47,1.42,1.78,2.35,3.43.06.12.13.24.2.37.2.36.4.73.59,1.12.46.91.9,1.87,1.26,2.82.35.89.63,1.77.8,2.58.02.09.04.19.06.29.06.32.13.67.19,1.04.09.54.18,1.12.27,1.73.06.47.12.97.18,1.47.06.49.11.99.16,1.49.08.79.14,1.59.18,2.35.04.51.06,1,.06,1.47.01.05.01.11.01.17.05,2.04-.09,3.68-.53,4.19-.97,1.11-2.41,1.52-5.23,1.68-.54.02-1.14.05-1.79.06h-.1c-.36.01-.75.01-1.16.02h-.41c-4.09.04-9.95-.06-13.1-.33-.06-.01-.12-.01-.18-.02-.69-.06-1.39-.13-2.07-.2-1.96-.17-3.84-.34-5.29-.44-.64-.05-1.19-.09-1.64-.11-.65-.03-1.35-.23-1.97-.54-1.1-.54-1.97-1.41-1.99-2.26-.02-.8.16-1.32.41-1.7.15-.26.33-.47.5-.67.28-.34.93-.95,1.79-1.7,1.16-1.03,2.69-2.3,4.19-3.5,1.52-1.23,3-2.37,4.01-3.08.11-.08.22-.16.34-.24.88-.63,1.79-1.28,2.66-1.91,2.21-1.6,4.22-3.09,5.26-3.88.64-.5,2.01-1.62,3.36-2.8.06-.04.12-.1.18-.15.35-.31.7-.62,1.04-.92.74-.67,1.4-1.3,1.81-1.77.13-.15.24-.28.32-.39.88-1.24,2.12-.74,3.28.33ZM389.99,121.26c-.46.5-1.09,1.12-1.78,1.77-.3.28-.62.57-.94.86-.06.06-.12.11-.18.16-1.19,1.08-2.35,2.08-2.9,2.54-.65.54-1.7,1.39-2.94,2.37-.64.51-1.33,1.06-2.04,1.61-.87.68-1.77,1.38-2.64,2.05-.2.16-.42.33-.67.52-.36.27-.77.59-1.21.92-.87.67-1.86,1.43-2.82,2.19-.39.3-.77.6-1.14.9-1.41,1.12-2.68,2.17-3.37,2.85-.18.18-.32.34-.42.46-.37.49-.64,1.05-.66,1.63-.07.59,1.2,1.02,2.55,1.26.65.12,1.33.19,1.88.22.8.04,1.98.16,3.36.32.69.07,1.43.16,2.19.24.9.1,1.84.2,2.77.3,2.65.27,7.28.33,10.92.3h.4c.42-.01.83-.01,1.21-.02.27,0,.52,0,.76-.01.4-.01.78-.02,1.13-.04,2.87-.13,3.98-.54,4.93-1.72.44-.54.61-1.97.62-3.73v-.17c0-.47-.02-.96-.04-1.47-.04-.8-.1-1.62-.19-2.44-.04-.42-.09-.83-.14-1.24-.06-.51-.13-1.01-.21-1.48-.07-.42-.14-.82-.21-1.19-.04-.18-.08-.36-.12-.54-.08-.35-.18-.71-.29-1.07-.21-.73-.47-1.48-.76-2.23-.39-1-.83-2-1.27-2.9-.19-.4-.39-.78-.58-1.14-.07-.13-.13-.25-.2-.37-.58-1.08-1.11-1.89-1.46-2.24-1.07-1.08-2.11-1.46-2.92-.22-.13.19-.34.45-.62.75ZM397.78,149.93c-.16.72-.55,1.67-1.06,2.7-.4.82-.88,1.7-1.38,2.55-.25.45-.52.89-.78,1.32-.92,1.49-1.81,2.79-2.34,3.45-.08.1-.17.21-.27.33-.7.8-1.95,2.06-3.27,3.3-1.82,1.71-3.77,3.38-4.55,3.74-1.43.66-3.08.33-4.73-.71-1.65-1.05-9.19-7.98-11.07-10.29-.87-1.08-2.25-2.72-3.42-4.39-1.33-1.93-2.39-3.91-2.08-5.19.01-.03.02-.07.03-.1.33-1.27.91-1.05,1.24-1,.2.02,1.24.16,2.78.35,1.05.13,2.33.28,3.73.43,1.75.18,3.69.36,5.61.51.86.06,1.71.11,2.55.15h.01c1.18.06,2.32.1,3.37.1,2.94,0,5.64-.14,7.84-.3.14-.01.27-.02.4-.03.36-.02.7-.05,1.03-.07.71-.06,1.34-.12,1.89-.17,1.11-.1,1.89-.18,2.27-.2,1.21-.06,2.81.88,2.2,3.52ZM394.96,147.56c-.29.03-.87.1-1.67.18-.54.05-1.17.11-1.9.17-.31.02-.64.04-.98.07-.13,0-.25.02-.38.03-1.96.13-4.36.24-6.98.24-.92,0-1.93-.01-2.97-.04-.92-.02-1.86-.04-2.81-.07-1.97-.07-3.93-.16-5.62-.24-1.6-.08-2.94-.16-3.8-.21-.55-.04-.91-.06-1.01-.07-.65-.08-1.4-.38-1.48.33-.01.05-.01.11-.01.16-.02.57.23,1.27.64,2.03,1.17,2.14,3.6,4.73,4.8,6.21,1.66,2.05,8.35,8.2,9.82,9.13,1.46.93,2.93,1.22,4.19.63.59-.27,1.95-1.4,3.34-2.67,1.24-1.14,2.52-2.4,3.31-3.26.22-.24.4-.44.53-.61.47-.59,1.33-1.81,2.22-3.21.27-.43.54-.88.81-1.33.51-.87,1.01-1.75,1.4-2.56.39-.8.69-1.53.82-2.09.54-2.34,0-3.05-2.27-2.82ZM370.55,103.55c1.42.23,2.8.54,4.08.88.44.12.87.24,1.27.37,1.25.38,2.36.78,3.22,1.16.34.15.74.34,1.18.57.14.07.29.15.44.23.67.35,1.41.78,2.18,1.26,1.13.7,2.32,1.52,3.42,2.41,1.08.87,2.07,1.8,2.85,2.75,1,1.23,1.23,2.88.06,3.94,0,0-.15.17-.46.49-.38.39-.98.99-1.82,1.77-.33.31-.7.64-1.1.99-.06.06-.11.11-.17.16-2.28,2-5.69,4.75-10.36,7.87-.01,0-.01.01-.02.01-.75.5-1.7,1.23-2.73,2.07-2.17,1.75-4.71,4-6.53,5.64-1.41,1.27-2.38,2.17-2.38,2.17h-.01c-2.19,1.7-4.52.1-4.38-2.67.46-9.41,2.27-20.64,1.23-30.39-.12-1.06,1.41-1.82,2.47-1.97,1.85-.25,3.95-.19,6.04.07.51.06,1.01.14,1.52.22ZM373.95,105.31c-1.31-.38-2.67-.69-4-.89-.52-.09-1.04-.15-1.54-.19-.98-.1-1.93-.12-2.81-.05-1.06.09-2.42.78-2.3,1.84.3,2.79.35,5.7.25,8.67-.16,5.65-.85,11.47-1.31,16.9-.14,1.7-.26,3.36-.34,4.96.07,1.61.66,1.66,1.58,1.08.65-.4,1.47-1.13,2.38-1.84l.08-.08c.51-.45,3.25-2.94,6.01-5.21h.01c.92-.76,1.84-1.49,2.68-2.12.44-.32.86-.62,1.25-.88,4.54-3.03,7.66-5.52,9.68-7.28.06-.07.12-.12.18-.16.42-.38.78-.72,1.11-1.02,1.05-1,1.61-1.63,1.79-1.84.05-.05.07-.08.07-.08,1.17-1.06,1.16-2.93-.06-3.94-.67-.56-1.29-1.06-1.87-1.5-1.27-.96-2.33-1.67-3.32-2.27-.77-.46-1.49-.86-2.24-1.25-.09-.05-.19-.1-.28-.15-.04-.02-.09-.05-.13-.07-1.44-.74-3.43-1.57-5.62-2.26-.41-.13-.82-.26-1.25-.37ZM512,193.39c0,97.47-114.62,176.48-256,176.48S0,290.86,0,193.39,114.62,16.9,256,16.9c42.41,0,82.41,7.11,117.63,19.7-3.83-11.85-2.57-26.73,7.6-33.9,2.95-2.05,6.48-2.59,9.91-2.7l.89,1.49c5.15,7.11,10.9,14.4,13.46,22.98.92,3.09,1.18,6.07,1.19,9.21-.17,5.49-.96,10.88-1.54,16.25.55.27,1.1.54,1.64.82,13.53-2.2,25.22,1.27,35.62,11.53,4.1,3.93,7.49,7.65,11.57,10.85-.59,2.41-1.51,4.44-2.68,6.15,37.86,30.76,60.71,70.6,60.71,114.11ZM501.49,187.35c0-39.65-19.82-76.13-53.01-104.96-1.46,1.25-3.13,2.21-4.94,2.93,31.35,27.72,50.03,62.57,50.03,100.44,0,90.38-106.37,163.65-237.57,163.65S18.43,276.14,18.43,185.76c0-64.19,53.64-119.69,131.71-146.49,0,.02,0,.04-.01.06C72.89,66.08,19.82,121.43,19.82,184.72c0,89.4,105.74,161.88,236.18,161.88s236.18-72.48,236.18-161.88c0-37.2-18.03-71.91-48.71-99.37-9.32,3.72-22.42,1.18-31.19-1.92,6.88.99,19.14,1.87,26.95-1.76.02,0,.03,0,.04-.02,1.77-.82,3.31-1.89,4.51-3.23.76-.86,1.39-1.84,1.84-2.95-.8-.79-1.57-1.59-2.31-2.39-1.94-2.08-3.72-4.14-5.59-6.06-6.55-7.13-13.7-10.75-21.9-11.51-1.99-.19-4.05-.21-6.18-.06-2.17.14-4.42.45-6.75.92,0,0-3.07.6-3.08.6.09-1.76.22-3.54.36-5.33.03-.38.06-.75.09-1.13.07-.94.14-1.89.22-2.83.21-2.5.42-4.98.58-7.4.27-3.81.37-7.47-.3-11.18-1.68-7.95-7.21-14.58-12.62-20.73-.65.38-1.23.81-1.76,1.31-6.73,6.86-5.94,20.21-4.16,30.13.16.93.34,1.83.51,2.69.08.35.15.69.22,1.02.01.01,1.6,3.51,1.6,3.52-2.12.15-4.23.32-6.35.51-15.27,1.38-30.5,3.97-45.52,7.29-1.75.38-3.5.78-5.24,1.19,17.68,5.04,34.43,14.22,48.31,25.69,0,.01,3.55,2.96,3.99,3.33-7.07-5.01-14.59-9.6-22.4-13.32-7.72-3.57-16.1-6.66-24.37-8.65-6.81-1.65-13.79-2.83-20.81-3.22-1.61.44-3.22.88-4.83,1.34-.56.15-1.12.31-1.67.47-13.08,3.76-25.99,8.16-38.59,13.28,25.89,2.03,51.43,10.27,71.77,26.47l-.11.15c-7.16-4.75-14.79-8.7-22.78-11.62-15.9-5.93-32.92-8.33-49.8-8.24-5.56.06-11.17.34-16.71.98-8.19,3.87-16.22,8.08-24.05,12.65-2.8,1.53-6.63,3.93-10.28,6.28-2.79,1.8-5.48,3.59-7.54,4.93-.11.08-.23.16-.34.24,2.58-.02,5.19,0,7.81.08,29.32.78,60.46,6.86,82.95,23l-.32.49c-16.34-9.31-35.17-12.96-53.74-14.02-9.85-.51-19.71-.31-29.53.5-3.12.25-6.24.57-9.34.95-.94.11-1.87.23-2.8.35-3.37.46-6.94,1-10.37,1.64-8.29,8.32-15.46,17.81-21.72,27.92-8.39,13.57-15.13,28.15-20.78,43.06-6.43,17.38-11.63,35.3-15.59,53.47-.6,2.74-1.16,5.48-1.7,8.22-1.58,7.98-2.91,16.01-4.01,24.05.3-.01.59-.02.88-.03,12.93-.47,25.88-1.74,38.73-3.83,5.36-.86,10.71-1.87,16.03-3.02,26.1-5.62,51.52-14.61,75.15-26.87.81-17.15-1.45-37.01-10.22-51.68-7.39-12.09-19.17-21.16-32.75-25.34-4.56-1.51-9.33-2.49-14.16-3.17l.05-.82c9.96-.08,20.01,1.76,29.13,6,19.76,9.33,30.98,26.8,35.3,47.78,1.52,7.27,2.5,14.44,2.66,21.77,27.68-15.81,52.56-36.32,72.72-61.38.55-.68,1.2-1.47,1.88-2.29-11.19-7.56-18.44-20.73-18.08-35.54.54-22.81,18.92-40.86,41.05-40.33,2.31.06,4.57.29,6.76.71,1.8-1.72,3.79-3.25,5.96-4.54.34-.2.68-.39,1.02-.58.44-.23.88-.46,1.33-.68,16.81-8.13,36.24-.66,44.27,19.7.68,1.73,1.25,3.44,1.71,5.14,3.52,12.79,1.12,24.66-5.39,33.38,1.94,7.09,2.95,14.41,2.95,21.9,0,64.66-75.69,117.08-169.07,117.08-23.56,0-45.99-3.34-66.37-9.37-25.42,6.65-51.55,10.1-77.17,9.99,1.36-16.1,4.33-32.01,7.98-47.72-21.05-19.53-33.51-43.75-33.51-69.98,0-53.24,51.31-98.18,121.56-112.39,1.38-1.67,2.86-3.24,4.46-4.68,9.81-9.21,22.71-13.95,35.68-16.2l1.88-.36,1.21.51c3.1,1.47,6.2,2.99,9.24,4.5,2.59,1.22,5.24,2.81,7.89,3.43,7.31-2.88,11.72-10.76,19.09-14.03,1.9-.96,4.65-1.35,6.71-1.73,2.16-.39,4.35-.48,6.52-.63,12.72-.36,25.45,2.52,37.66,5.39,8.11,1.71,16.22,4.4,24.57,4.09l.03.3c-.35.05-.7.09-1.05.13-.24.02-.49.04-.73.06-.28.02-.56.04-.85.05-3.33.15-6.67-.21-9.96-.61-4.17-.51-8.31-1.21-12.43-1.89-9.27-1.55-18.49-2.94-27.78-3.18-6.38-.05-13.11.39-19.17,2.48-3.89,1.5-6.39,4.67-9.85,8.15-3.08,3.24-6.98,6.18-11.27,7.85l-.5.21h-.76c-.56.03-1.1.03-1.64.02-3.33-.12-6.38-1.11-9.5-1.8-2.59-.63-5.16-1.24-7.73-1.83-5.02,1.65-9.51,3.57-13.46,5.84-.54.31-1.07.62-1.59.94-11.22,6.99-17.77,17.09-19.42,32.14,7.97-4.5,16.13-8.67,24.44-12.52,1.71-.81,3.43-1.59,5.16-2.35,13.93-6.21,28.26-11.54,42.86-16.01.63-.2,1.27-.39,1.9-.58,4.15-1.25,8.32-2.42,12.51-3.53,2.62-.7,5.25-1.36,7.88-2,16.67-4.05,33.59-7.01,50.58-8.89.26-.04.52-.06.79-.09.26-.03.52-.06.78-.09.35-.04.69-.07,1.04-.11,4.09-.43,8.19-.8,12.28-1.1-.5-.97-.96-1.97-1.38-3.01-35.15-13.39-75.57-21.01-118.58-21.01C120.42,18.25,10.51,93.96,10.51,187.35s109.91,169.1,245.49,169.1,245.49-75.7,245.49-169.1ZM90.73,168.71c0,24.67,11.74,47.49,31.64,66.01.08-.33.16-.66.24-.99,8.27-32.17,19.92-64.02,37.92-92.13,7.44-11.49,16.23-22.52,26.49-31.91.82-.76,1.64-1.49,2.48-2.22,1.09-.95,2.2-1.89,3.33-2.79.64-4.11,1.13-8.31,2.02-12.51,1.84-10.38,5.88-21.87,12.83-30.77-67.7,14.02-116.95,56.76-116.95,107.31ZM402.75,154.97c1.94-.44,4.33-1.26,7.16-2.72,3.02-1.55,4.45-2.57,5.71-3.99.44-.5.62-1.48.02-1.71-.79-.29-4.52-1.39-9.83-3.62-.15-.06-.29-.13-.44-.19-.09,1.08-.21,2.13-.36,3.17-.47,3.22-1.23,6.24-2.26,9.06ZM405.54,139.32c2.07,1.07,9.11,3.49,10.52,3.69.3.04.59.06.87.06h0c.93-.02,1.72-.31,2.3-.91.07-.08.14-.16.21-.25.75-.98,2.72-6.51,3.09-8.17.36-1.66,1.12-7.47.7-9.61-.43-2.14-1.08-2.52-2.7-1.44-.75.49-4.06,2.75-8.44,5.02-.09.05-.18.1-.28.15-.45.23-.93.47-1.43.72-1.71.85-3.65,1.76-5.42,2.57.43,2.62.63,5.35.58,8.17ZM402.25,156.27c-.64,1.6-1.38,3.14-2.2,4.59,3.04-.15,5.84-.77,8.17-1.78,4.38-1.91,8.1-4.51,11.11-7.64.79-.82,1.53-1.67,2.22-2.56,6.53-8.4,8.6-19.72,5.43-31.23-.44-1.62-.99-3.25-1.65-4.87-7.28-18.01-26.79-27.57-43.43-19-.22.12-.44.23-.66.35-.35.19-.69.38-1.02.58-2,1.18-3.83,2.54-5.46,4.06,1.67.38,3.3.86,4.88,1.43.17-.65.73-1.3,1.22-1.65.73-.52,1.56-.98,2.43-1.4.38-.18.76-.34,1.15-.5,3.38-1.38,7.22-2.07,9.49-2.13,2.14-.05,7.03.42,10.12,2.06,1.19.62,1.94,1.9,1.44,3.23,0,0-1.23,4.59-5.07,12.06-.24.45-.48.91-.73,1.38-.22.41-.44.83-.68,1.26-.1.18-.2.37-.31.59.27.39.52.8.77,1.21.35-.68.7-1.38,1.05-2.07.25-.48.49-.96.72-1.42.91-1.8,1.7-3.41,2.12-4.32.64-1.37,2.7-6.2,2.92-7.56.23-1.36,1.33-1.44,2.58-1s5.56,3.62,7.55,6.5c1.99,2.87,5.85,9.94,5.45,11.48-.41,1.53-1.65,2.51-4.67,4.14-1.69.92-4.18,2.2-6.54,3.34-.57.27-1.13.54-1.67.79-1.2.56-2.3,1.05-3.14,1.38-.5.2-1,.4-1.49.59.16.61.29,1.22.41,1.85,1.76-.71,3.57-1.49,5.15-2.26.29-.14.58-.28.85-.42.28-.14.56-.29.83-.43,4.67-2.48,8.15-4.92,8.99-5.41.9-.51,2.43-.36,2.9,2.05.48,2.42-.23,8.54-.64,10.41-.39,1.77-2.38,7.38-3.32,8.97-.05.1-.11.18-.16.25-.5.65-1.18,1.04-1.99,1.2-.55.12-1.16.13-1.82.04-1.3-.19-6.8-2.03-10.06-3.36-.03.51-.06,1.01-.1,1.5.16.07.33.14.49.21,4.78,2,9.23,3.06,9.95,3.32.6.23.95.82.78,1.48-.17.67-.91,2.82-7.67,6.31-2.37,1.22-4.66,1.97-6.69,2.4ZM407.44,126.27c.38-.15.81-.32,1.27-.53.52-.22,1.08-.48,1.67-.76,2.42-1.14,5.24-2.59,7.15-3.63,2.78-1.51,3.6-2.29,3.93-3.8.34-1.5-2.32-6.69-4.26-9.59-1.95-2.91-6.04-6.37-7.22-6.84-1.18-.47-2.1-.39-2.27.95-.17,1.33-2.12,6.17-2.68,7.5-.43,1.03-1.3,2.96-2.26,5.05-.24.51-.48,1.03-.72,1.54-.21.45-.41.89-.62,1.33-.17.35-.36.77-.58,1.23,1.42,2.72,2.55,5.65,3.34,8.77,1.02-.38,2.15-.8,3.25-1.22ZM399.11,113.53c.11-.2.22-.4.32-.59.26-.47.5-.92.72-1.36,4.07-7.71,4.94-11.57,4.94-11.57.51-1.33-.16-2.86-1.43-3.23-3.6-1.03-5.51-1.16-7.62-1.27-2.7-.14-7.31.34-10.83,1.76-.4.15-.78.32-1.15.52-.32.15-.62.32-.91.5-.76.49-1.54,1.58-1.08,2.41.11.21.23.42.33.63,6.49,2.92,12.04,7.54,16.08,13.44.22-.46.43-.87.63-1.24ZM373.7,99.8c-.5-.11-1.01-.2-1.53-.28-1.89-.3-3.83-.46-5.82-.46-21.72,0-36.8,16.73-37.46,39.19-.41,13.97,7.66,25.2,17.29,32.01,1.59,1.13,3.23,2.13,4.88,3.01,4.64,2.47,9.38,3.92,13.5,4.17,13.43.82,24.64-4.15,31.8-12.92.93-1.14,1.79-2.35,2.59-3.62.87-1.41,1.66-2.89,2.35-4.44.2-.43.38-.87.56-1.31,1.17-2.9,2.01-6.02,2.49-9.33.16-1.1.28-2.23.36-3.37,0-.06,0-.13.02-.19.03-.49.06-.99.07-1.49.01-.2.02-.4.02-.6.01-.41.01-.81.01-1.22-.02-2.51-.27-4.99-.74-7.41-.07-.38-.15-.77-.25-1.16-.13-.61-.28-1.22-.45-1.83-.05-.23-.12-.46-.19-.69-.76-2.65-1.79-5.21-3.06-7.63-.43-.85-.9-1.67-1.4-2.48-.24-.4-.49-.79-.75-1.18-.06-.11-.13-.22-.21-.32-3.66-5.46-8.59-9.98-14.41-13.01-1.09-.58-2.22-1.1-3.37-1.55-2.02-.82-4.12-1.45-6.3-1.89ZM293.76,231.47c-7.94,5.84-16.25,11.3-24.87,16.35-19.6,11.49-40.79,20.87-62.72,27.88,15.72,3.37,32.46,5.19,49.83,5.19,91.28,0,165.27-50.23,165.27-112.18,0-5.1-.5-10.12-1.48-15.04-2.95,3.2-6.52,5.85-10.61,7.82-3.71,1.79-7.56,2.76-11.4,2.98-7.48,10.45-19.63,16.19-33.3,15.86-5.66-.14-11.01-1.47-15.84-3.78-.9,1.17-1.85,2.38-2.35,3.06-14.79,19.62-32.89,37.09-52.53,51.86ZM351.7,154.2c-1.6,3.62-2.92,6.46-3.14,7.68-.83,4.51-3.58,2.43-4.29,1.65-5.54-6.03-7.27-9.36-9-14.78-1.12-3.48-2.56-15.03.08-15.69,2.1-.52,17.56,7.41,20.76,11.36,1.97,2.42-2.07,4.46-4.41,9.78ZM351.02,154.51c2.34-5.32,6.14-7.52,4.62-9.33-2.75-3.26-17.84-11.83-19.49-10.42-1.65,1.4.2,10.62,1.08,13.49,1.74,5.62,7.93,13.38,8.76,14.04.82.66,1.59.66,1.89-.1.45-1.15,1.54-4.05,3.14-7.68ZM378.92,168.42c.55.53.65,1.29.16,1.87-.5.58-2.31,2.34-11.31,2.34-6.25,0-11.26-1.67-14.16-3.06-1.28-.6-2.14-1.16-2.52-1.48-.71-.63-1.29-1.25-1.48-2.5-.13-.91-.05-2.14.33-3.94.91-4.3,5.75-11.17,7.26-12.96.42-.49,1.49-1.6,2.15-1.58.92.04,1.36.83,1.77,1.6.07.14.14.26.21.39.38.66,1.53,2.32,2.82,4.09,1.65,2.28,3.53,4.74,4.28,5.57,4.63,5.06,9.77,8.97,10.49,9.66ZM378.49,168.78c-.72-.69-4.27-3.69-9.03-8.63-2.38-2.47-4.1-4.86-5.42-6.79-1.44-2.1-2.4-3.65-3.24-4.15-.5-.32-.96-.25-1.45.31-1.48,1.7-6.05,8.23-7.16,12.54-.04.14-.07.28-.1.41-.91,4.3-.2,4.29,1.58,5.33.21.12.48.29.83.48,2.02,1.13,6.53,3.24,15.08,3.24,4.02,0,6.06-.28,8.09-1.05.72-.27,1.37-1.16.82-1.69ZM334.96,127.08c.62-3.55,4.13-9.87,7.74-13.67,4.43-4.67,10.76-7.99,13.65-8.37,2.62-.33,3.22,2.58,2.83,4.78-.48,2.74-1.15,22.95-1.07,25.17.1,2.63-1.47,5.87-3.7,4.02-2.52-2.1-14.63-8.13-16.93-8.88-2.39-.78-2.87-1.05-2.52-3.05ZM340.63,129.06c2.42.66,12.04,6.64,14.62,8.67,2.06,1.62,2.53-.75,2.56-2.89.03-2.22.59-22.23.92-24.99.2-1.77.52-3.81-2.11-3.47-2.89.37-7.95,3.55-12.38,8.21-3.61,3.8-5.96,8.11-6.58,11.66-.35,2,.55,2.15,2.97,2.81Z"/></svg>