<svg viewBox="0 0 512 512" fill="currentColor" xmlns="http://www.w3.org/2000/svg"><path d="M383.32,94.91L471.42,7.01c9.3-9.4,24.5-9.3,33.9,0,9.4,9.3,9.4,24.5,0,33.9l-.1-.1-88,88c-9.3,9.4-24.5,9.3-33.9,0-9.4-9.3-9.4-24.5,0-33.9ZM170.02,276.21l10.4,10.4-30.5,30.5c-3.4-27.3-15.5-53.8-36.5-74.8l-11.3-11.4c-6.2-6.2-16.4-6.2-22.6,0l-11.3,11.3c-37.5,37.5-37.5,98.3,0,135.8l10.4,10.4L9.72,457.31c-12.5,12.5-12.5,32.8,0,45.3,12.5,12.5,32.8,12.5,45.3,0l68.9-68.9,12.2,12.2c37.5,37.5,98.3,37.5,135.8,0l11.3-11.3c6.2-6.2,6.2-16.4,0-22.6l-11.3-11.3c-21.8-21.8-49.6-34.1-78.1-36.9l31.9-31.9,12.2,12.2c19.26,19.26,44.68,28.6,69.92,28.08l-165.9-165.9c-.53,25.24,8.81,50.66,28.08,69.92ZM505.32,103.01c-9.4-9.3-24.6-9.4-33.9,0l-59.4,59.4c-20.6-4.4-42-3.7-62.3,2.1,6.1-21.3,6.6-43.8,1.4-65.3l58.2-58.3c9.4-9.4,9.4-24.6,0-33.9-9.4-9.3-24.6-9.4-33.9,0l-46,45.8c-3.7-5-7.8-9.8-12.4-14.3l-11.2-11.3c-6.2-6.2-16.4-6.2-22.6,0l-11.4,11.3c-37.5,37.5-37.5,98.3,0,135.8l10.4,10.4-30.5,30.5c-3.4-27.3-15.5-53.8-36.5-74.8l-11.3-11.3c-6.2-6.2-16.4-6.2-22.6,0l-11.3,11.3c-1.53,1.53-2.97,3.1-4.37,4.7L25.61,5.07C19.75-.79,10.25-.79,4.39,5.07c-5.86,5.86-5.86,15.35,0,21.21l482,482c2.93,2.93,6.77,4.39,10.61,4.39s7.68-1.46,10.61-4.39c5.86-5.86,5.86-15.36,0-21.21l-138.59-138.59c1.6-1.4,3.18-2.84,4.7-4.37l11.3-11.3c6.2-6.2,6.2-16.4,0-22.6l-11.3-11.3c-21.8-21.8-49.6-34.1-78.1-36.9l31.9-31.9,12.2,12.2c37.5,37.5,98.3,37.5,135.8,0l11.3-11.4c6.2-6.2,6.2-16.4,0-22.6l-11.3-11.4c-5.2-5.2-10.6-9.8-16.4-13.9l46.2-46.1c9.4-9.4,9.4-24.6,0-33.9Z"/></svg>