<svg viewBox="0 0 512 512" fill="currentColor" xmlns="http://www.w3.org/2000/svg"><path d="M442,0h-124c-58.54,0-106,47.46-106,106v56.69c-.39,27.28-22.61,49.27-49.98,49.27l-56.02.04C47.46,212,0,259.46,0,318v124c0,38.66,31.34,70,70,70h124c58.54,0,106-47.46,106-106v-56c0-27.61,22.39-50,50-50h56c58.54,0,106-47.46,106-106v-124c0-38.66-31.34-70-70-70ZM482,194c0,41.91-34.09,76-76,76h-56c-44.11,0-80,35.89-80,80v56c0,41.91-34.09,76-76,76h-124c-22.06,0-40-17.94-40-40v-124c0-41.91,34.09-76,76.02-76l56-.04c43.48,0,79.36-35.37,79.98-78.84v-.21s0-.21,0-.21v-56.69c0-41.91,34.09-76,76-76h124c22.06,0,40,17.94,40,40v124ZM240,437c0,8.28-6.72,15-15,15s-15-6.72-15-15,6.72-15,15-15,15,6.72,15,15ZM180,437c0,8.28-6.72,15-15,15s-15-6.72-15-15,6.72-15,15-15,15,6.72,15,15ZM240,377c0,8.28-6.72,15-15,15s-15-6.72-15-15,6.72-15,15-15,15,6.72,15,15ZM452,225c0,8.28-6.72,15-15,15s-15-6.72-15-15,6.72-15,15-15,15,6.72,15,15ZM392,225c0,8.28-6.72,15-15,15s-15-6.72-15-15,6.72-15,15-15,15,6.72,15,15ZM452,165c0,8.28-6.72,15-15,15s-15-6.72-15-15,6.72-15,15-15,15,6.72,15,15Z"/></svg>