<?xml version="1.0" encoding="UTF-8"?><svg id="a" xmlns="http://www.w3.org/2000/svg" viewBox="0 0 512 512"><rect width="512" height="512" fill="#ff6b00"/><path d="M200.87,279.72c0,4.47-4.18,8.09-9.34,8.09s-9.35-3.62-9.35-8.09,4.19-8.09,9.35-8.09,9.34,3.62,9.34,8.09ZM368.99,201.55c.42.39,1.17,1.47,1.94,2.83.05.1.11.2.17.31.17.3.33.6.49.92.38.75.74,1.54,1.04,2.33.29.73.52,1.46.66,2.13.02.07.03.16.05.24.05.26.11.55.16.86.07.45.15.92.22,1.43.05.39.1.8.15,1.21.05.4.09.82.13,1.23.07.65.12,1.31.15,1.94.03.42.05.83.05,1.21,0,.04,0,.09,0,.14.04,1.68-.07,3.04-.44,3.46-.8.92-1.99,1.25-4.32,1.39-.45.02-.94.04-1.48.05h-.08c-.3,0-.62,0-.96.02h-.34c-3.38.03-8.21-.05-10.82-.27-.05,0-.1,0-.15-.02-.57-.05-1.15-.11-1.71-.17-1.62-.14-3.17-.28-4.37-.36-.53-.04-.98-.07-1.35-.09-.54-.02-1.11-.19-1.63-.45-.91-.45-1.63-1.16-1.64-1.87-.02-.66.13-1.09.34-1.4.12-.21.27-.39.41-.55.23-.28.77-.78,1.48-1.4.96-.85,2.22-1.9,3.46-2.89,1.25-1.02,2.48-1.96,3.31-2.54.09-.07.18-.13.28-.2.73-.52,1.48-1.06,2.2-1.58,1.82-1.32,3.48-2.55,4.34-3.2.53-.41,1.66-1.34,2.77-2.31.05-.03.1-.08.15-.12.29-.26.58-.51.86-.76.61-.55,1.16-1.07,1.49-1.46.11-.12.2-.23.26-.32.73-1.02,1.75-.61,2.71.27ZM366.62,203.43c-.38.41-.9.92-1.47,1.46-.25.23-.51.47-.78.71-.05.05-.1.09-.15.13-.98.89-1.94,1.72-2.39,2.1-.54.45-1.4,1.15-2.43,1.96-.53.42-1.1.88-1.68,1.33-.72.56-1.46,1.14-2.18,1.69-.17.13-.35.27-.55.43-.3.22-.64.49-1,.76-.72.55-1.54,1.18-2.33,1.81-.32.25-.64.5-.94.74-1.16.92-2.21,1.79-2.78,2.35-.15.15-.26.28-.35.38-.31.4-.53.87-.54,1.35-.06.49.99.84,2.11,1.04.54.1,1.1.16,1.55.18.66.03,1.63.13,2.77.26.57.06,1.18.13,1.81.2.74.08,1.52.17,2.29.25,2.19.22,6.01.27,9.02.25h.33c.35,0,.69,0,1-.02.22,0,.43,0,.63,0,.33,0,.64-.02.93-.03,2.37-.11,3.29-.45,4.07-1.42.36-.45.5-1.63.51-3.08v-.14c0-.39-.02-.79-.03-1.21-.03-.66-.08-1.34-.16-2.01-.03-.35-.07-.69-.12-1.02-.05-.42-.11-.83-.17-1.22-.06-.35-.12-.68-.17-.98-.03-.15-.07-.3-.1-.45-.07-.29-.15-.59-.24-.88-.17-.6-.39-1.22-.63-1.84-.32-.83-.69-1.65-1.05-2.39-.16-.33-.32-.64-.48-.94-.06-.11-.11-.21-.17-.31-.48-.89-.92-1.56-1.21-1.85-.88-.89-1.74-1.21-2.41-.18-.11.16-.28.37-.51.62ZM373.06,227.1c-.13.59-.45,1.38-.88,2.23-.33.68-.73,1.4-1.14,2.11-.21.37-.43.73-.64,1.09-.76,1.23-1.49,2.3-1.93,2.85-.07.08-.14.17-.22.27-.58.66-1.61,1.7-2.7,2.72-1.5,1.41-3.11,2.79-3.76,3.09-1.18.54-2.54.27-3.91-.59-1.36-.87-7.59-6.59-9.14-8.5-.72-.89-1.86-2.25-2.82-3.62-1.1-1.59-1.97-3.23-1.72-4.28,0-.02.02-.06.02-.08.27-1.05.75-.87,1.02-.83.17.02,1.02.13,2.3.29.87.11,1.92.23,3.08.36,1.44.15,3.05.3,4.63.42.71.05,1.41.09,2.11.12h0c.97.05,1.92.08,2.78.08,2.43,0,4.66-.12,6.47-.25.12,0,.22-.02.33-.02.3-.02.58-.04.85-.06.59-.05,1.11-.1,1.56-.14.92-.08,1.56-.15,1.87-.17,1-.05,2.32.73,1.82,2.91ZM370.73,225.14c-.24.02-.72.08-1.38.15-.45.04-.97.09-1.57.14-.26.02-.53.03-.81.06-.11,0-.21.02-.31.02-1.62.11-3.6.2-5.76.2-.76,0-1.59,0-2.45-.03-.76-.02-1.54-.03-2.32-.06-1.63-.06-3.24-.13-4.64-.2-1.32-.07-2.43-.13-3.14-.17-.45-.03-.75-.05-.83-.06-.54-.07-1.16-.31-1.22.27,0,.04,0,.09,0,.13-.02.47.19,1.05.53,1.68.97,1.77,2.97,3.91,3.96,5.13,1.37,1.69,6.89,6.77,8.11,7.54,1.21.77,2.42,1.01,3.46.52.49-.22,1.61-1.16,2.76-2.2,1.02-.94,2.08-1.98,2.73-2.69.18-.2.33-.36.44-.5.39-.49,1.1-1.49,1.83-2.65.22-.36.45-.73.67-1.1.42-.72.83-1.44,1.16-2.11.32-.66.57-1.26.68-1.73.45-1.93,0-2.52-1.87-2.33ZM350.57,188.81c1.17.19,2.31.45,3.37.73.36.1.72.2,1.05.31,1.03.31,1.95.64,2.66.96.28.12.61.28.97.47.12.06.24.12.36.19.55.29,1.16.64,1.8,1.04.93.58,1.92,1.25,2.82,1.99.89.72,1.71,1.49,2.35,2.27.83,1.02,1.02,2.38.05,3.25,0,0-.12.14-.38.4-.31.32-.81.82-1.5,1.46-.27.26-.58.53-.91.82-.05.05-.09.09-.14.13-1.88,1.65-4.7,3.92-8.55,6.5,0,0,0,0-.02,0-.62.41-1.4,1.02-2.25,1.71-1.79,1.44-3.89,3.3-5.39,4.66-1.16,1.05-1.96,1.79-1.96,1.79h0c-1.81,1.4-3.73.08-3.62-2.2.38-7.77,1.87-17.04,1.02-25.09-.1-.88,1.16-1.5,2.04-1.63,1.53-.21,3.26-.16,4.99.06.42.05.83.12,1.25.18ZM353.38,190.26c-1.08-.31-2.2-.57-3.3-.73-.43-.07-.86-.12-1.27-.16-.81-.08-1.59-.1-2.32-.04-.88.07-2,.64-1.9,1.52.25,2.3.29,4.71.21,7.16-.13,4.66-.7,9.47-1.08,13.95-.12,1.4-.21,2.77-.28,4.1.06,1.33.54,1.37,1.3.89.54-.33,1.21-.93,1.96-1.52l.07-.07c.42-.37,2.68-2.43,4.96-4.3h0c.76-.63,1.52-1.23,2.21-1.75.36-.26.71-.51,1.03-.73,3.75-2.5,6.32-4.56,7.99-6.01.05-.06.1-.1.15-.13.35-.31.64-.59.92-.84.87-.83,1.33-1.35,1.48-1.52.04-.04.06-.07.06-.07.97-.88.96-2.42-.05-3.25-.55-.46-1.07-.88-1.54-1.24-1.05-.79-1.92-1.38-2.74-1.87-.64-.38-1.23-.71-1.85-1.03-.07-.04-.16-.08-.23-.12-.03-.02-.07-.04-.11-.06-1.19-.61-2.83-1.3-4.64-1.87-.34-.11-.68-.21-1.03-.31ZM467.36,262.98c0,80.47-94.63,145.7-211.36,145.7S44.64,343.45,44.64,262.98s94.63-145.71,211.36-145.71c35.01,0,68.04,5.87,97.12,16.26-3.16-9.78-2.12-22.07,6.27-27.99,2.44-1.69,5.35-2.14,8.18-2.23l.73,1.23c4.25,5.87,9,11.89,11.11,18.97.76,2.55.97,5.01.98,7.6-.14,4.53-.79,8.98-1.27,13.42.45.22.91.45,1.35.68,11.17-1.82,20.82,1.05,29.41,9.52,3.39,3.24,6.18,6.32,9.55,8.96-.49,1.99-1.25,3.67-2.21,5.08,31.26,25.4,50.12,58.29,50.12,94.21ZM458.68,257.99c0-32.74-16.36-62.85-43.77-86.66-1.21,1.03-2.58,1.82-4.08,2.42,25.88,22.89,41.31,51.66,41.31,82.92,0,74.62-87.82,135.11-196.14,135.11s-196.14-60.49-196.14-135.11c0-53,44.29-98.82,108.74-120.94,0,.02,0,.03,0,.05-63.77,22.09-107.59,67.78-107.59,120.04,0,73.81,87.3,133.65,194.99,133.65s194.99-59.84,194.99-133.65c0-30.71-14.89-59.37-40.22-82.04-7.69,3.07-18.51.97-25.75-1.59,5.68.82,15.8,1.54,22.25-1.45.02,0,.02,0,.03-.02,1.46-.68,2.73-1.56,3.72-2.67.63-.71,1.15-1.52,1.52-2.44-.66-.65-1.3-1.31-1.91-1.97-1.6-1.72-3.07-3.42-4.62-5-5.41-5.89-11.31-8.88-18.08-9.5-1.64-.16-3.34-.17-5.1-.05-1.79.12-3.65.37-5.57.76,0,0-2.53.5-2.54.5.07-1.45.18-2.92.3-4.4.02-.31.05-.62.07-.93.06-.78.12-1.56.18-2.34.17-2.06.35-4.11.48-6.11.22-3.15.31-6.17-.25-9.23-1.39-6.56-5.95-12.04-10.42-17.12-.54.31-1.02.67-1.45,1.08-5.56,5.66-4.9,16.69-3.43,24.88.13.77.28,1.51.42,2.22.07.29.12.57.18.84,0,0,1.32,2.9,1.32,2.91-1.75.12-3.49.26-5.24.42-12.61,1.14-25.18,3.28-37.58,6.02-1.44.31-2.89.64-4.33.98,14.6,4.16,28.43,11.74,39.89,21.21,0,0,2.93,2.44,3.29,2.75-5.84-4.14-12.05-7.93-18.49-11-6.37-2.95-13.29-5.5-20.12-7.14-5.62-1.36-11.39-2.34-17.18-2.66-1.33.36-2.66.73-3.99,1.11-.46.12-.92.26-1.38.39-10.8,3.1-21.46,6.74-31.86,10.96,21.38,1.68,42.46,8.48,59.25,21.85l-.09.12c-5.91-3.92-12.21-7.18-18.81-9.59-13.13-4.9-27.18-6.88-41.12-6.8-4.59.05-9.22.28-13.8.81-6.76,3.2-13.39,6.67-19.86,10.44-2.31,1.26-5.47,3.24-8.49,5.18-2.3,1.49-4.52,2.96-6.23,4.07-.09.07-.19.13-.28.2,2.13-.02,4.28,0,6.45.07,24.21.64,49.92,5.66,68.48,18.99l-.26.4c-13.49-7.69-29.04-10.7-44.37-11.58-8.13-.42-16.27-.26-24.38.41-2.58.21-5.15.47-7.71.78-.78.09-1.54.19-2.31.29-2.78.38-5.73.83-8.56,1.35-6.84,6.87-12.76,14.7-17.93,23.05-6.93,11.2-12.49,23.24-17.16,35.55-5.31,14.35-9.6,29.14-12.87,44.15-.5,2.26-.96,4.52-1.4,6.79-1.3,6.59-2.4,13.22-3.31,19.86.25,0,.49-.02.73-.02,10.68-.39,21.37-1.44,31.98-3.16,4.43-.71,8.84-1.54,13.23-2.49,21.55-4.64,42.54-12.06,62.05-22.18.67-14.16-1.2-30.56-8.44-42.67-6.1-9.98-15.83-17.47-27.04-20.92-3.76-1.25-7.7-2.06-11.69-2.62l.04-.68c8.22-.07,16.52,1.45,24.05,4.95,16.31,7.7,25.58,22.13,29.14,39.45,1.25,6,2.06,11.92,2.2,17.97,22.85-13.05,43.39-29.99,60.04-50.68.45-.56.99-1.21,1.55-1.89-9.24-6.24-15.22-17.12-14.93-29.34.45-18.83,15.62-33.73,33.89-33.3,1.91.05,3.77.24,5.58.59,1.49-1.42,3.13-2.68,4.92-3.75.28-.17.56-.32.84-.48.36-.19.73-.38,1.1-.56,13.88-6.71,29.92-.54,36.55,16.26.56,1.43,1.03,2.84,1.41,4.24,2.91,10.56.92,20.36-4.45,27.56,1.6,5.85,2.44,11.9,2.44,18.08,0,53.38-62.49,96.66-139.59,96.66-19.45,0-37.97-2.76-54.8-7.74-20.99,5.49-42.56,8.34-63.71,8.25,1.12-13.29,3.57-26.43,6.59-39.4-17.38-16.12-27.67-36.12-27.67-57.78,0-43.96,42.36-81.06,100.36-92.79,1.14-1.38,2.36-2.67,3.68-3.86,8.1-7.6,18.75-11.52,29.46-13.37l1.55-.3,1,.42c2.56,1.21,5.12,2.47,7.63,3.72,2.14,1.01,4.33,2.32,6.51,2.83,6.04-2.38,9.68-8.88,15.76-11.58,1.57-.79,3.84-1.11,5.54-1.43,1.78-.32,3.59-.4,5.38-.52,10.5-.3,21.01,2.08,31.09,4.45,6.7,1.41,13.39,3.63,20.29,3.38l.02.25c-.29.04-.58.07-.87.11-.2.02-.4.03-.6.05-.23.02-.46.03-.7.04-2.75.12-5.51-.17-8.22-.5-3.44-.42-6.86-1-10.26-1.56-7.65-1.28-15.27-2.43-22.94-2.63-5.27-.04-10.82.32-15.83,2.05-3.21,1.24-5.28,3.86-8.13,6.73-2.54,2.68-5.76,5.1-9.3,6.48l-.41.17h-.63c-.46.02-.91.02-1.35.02-2.75-.1-5.27-.92-7.84-1.49-2.14-.52-4.26-1.02-6.38-1.51-4.14,1.36-7.85,2.95-11.11,4.82-.45.26-.88.51-1.31.78-9.26,5.77-14.67,14.11-16.03,26.54,6.58-3.72,13.32-7.16,20.18-10.34,1.41-.67,2.83-1.31,4.26-1.94,11.5-5.13,23.33-9.53,35.39-13.22.52-.17,1.05-.32,1.57-.48,3.43-1.03,6.87-2,10.33-2.91,2.16-.58,4.33-1.12,6.51-1.65,13.76-3.34,27.73-5.79,41.76-7.34.21-.03.43-.05.65-.07.21-.02.43-.05.64-.07.29-.03.57-.06.86-.09,3.38-.36,6.76-.66,10.14-.91-.41-.8-.79-1.63-1.14-2.49-29.02-11.06-62.39-17.35-97.9-17.35-111.94,0-202.68,62.51-202.68,139.61s90.74,139.61,202.68,139.61,202.68-62.5,202.68-139.61ZM119.55,242.6c0,20.37,9.69,39.21,26.12,54.5.07-.27.13-.54.2-.82,6.83-26.56,16.45-52.86,31.31-76.06,6.14-9.49,13.4-18.59,21.87-26.35.68-.63,1.35-1.23,2.05-1.83.9-.78,1.82-1.56,2.75-2.3.53-3.39.93-6.86,1.67-10.33,1.52-8.57,4.85-18.06,10.59-25.4-55.89,11.58-96.56,46.86-96.56,88.6ZM377.16,231.26c1.6-.36,3.57-1.04,5.91-2.25,2.49-1.28,3.67-2.12,4.71-3.29.36-.41.51-1.22.02-1.41-.65-.24-3.73-1.15-8.12-2.99-.12-.05-.24-.11-.36-.16-.07.89-.17,1.76-.3,2.62-.39,2.66-1.02,5.15-1.87,7.48ZM379.46,218.34c1.71.88,7.52,2.88,8.69,3.05.25.03.49.05.72.05h0c.77-.02,1.42-.26,1.9-.75.06-.07.12-.13.17-.21.62-.81,2.25-5.37,2.55-6.75.3-1.37.92-6.17.58-7.93-.36-1.77-.89-2.08-2.23-1.19-.62.4-3.35,2.27-6.97,4.14-.07.04-.15.08-.23.12-.37.19-.77.39-1.18.59-1.41.7-3.01,1.45-4.47,2.12.36,2.16.52,4.42.48,6.75ZM376.75,232.33c-.53,1.32-1.14,2.59-1.82,3.79,2.51-.12,4.82-.64,6.75-1.47,3.62-1.58,6.69-3.72,9.17-6.31.65-.68,1.26-1.38,1.83-2.11,5.39-6.94,7.1-16.28,4.48-25.78-.36-1.34-.82-2.68-1.36-4.02-6.01-14.87-22.12-22.76-35.86-15.69-.18.1-.36.19-.54.29-.29.16-.57.31-.84.48-1.65.97-3.16,2.1-4.51,3.35,1.38.31,2.72.71,4.03,1.18.14-.54.6-1.07,1.01-1.36.6-.43,1.29-.81,2.01-1.16.31-.15.63-.28.95-.41,2.79-1.14,5.96-1.71,7.84-1.76,1.77-.04,5.8.35,8.36,1.7.98.51,1.6,1.57,1.19,2.67,0,0-1.02,3.79-4.19,9.96-.2.37-.4.75-.6,1.14-.18.34-.36.69-.56,1.04-.08.15-.17.31-.26.49.22.32.43.66.64,1,.29-.56.58-1.14.87-1.71.21-.4.4-.79.59-1.17.75-1.49,1.4-2.82,1.75-3.57.53-1.13,2.23-5.12,2.41-6.24.19-1.12,1.1-1.19,2.13-.83s4.59,2.99,6.23,5.37c1.64,2.37,4.83,8.21,4.5,9.48-.34,1.26-1.36,2.07-3.86,3.42-1.4.76-3.45,1.82-5.4,2.76-.47.22-.93.45-1.38.65-.99.46-1.9.87-2.59,1.14-.41.17-.83.33-1.23.49.13.5.24,1.01.34,1.53,1.45-.59,2.95-1.23,4.25-1.87.24-.12.48-.23.7-.35.23-.12.46-.24.69-.36,3.86-2.05,6.73-4.06,7.42-4.47.74-.42,2.01-.3,2.39,1.69.4,2-.19,7.05-.53,8.59-.32,1.46-1.96,6.09-2.74,7.41-.04.08-.09.15-.13.21-.41.54-.97.86-1.64.99-.45.1-.96.11-1.5.03-1.07-.16-5.61-1.68-8.31-2.77-.02.42-.05.83-.08,1.24.13.06.27.12.4.17,3.95,1.65,7.62,2.53,8.21,2.74.5.19.78.68.64,1.22-.14.55-.75,2.33-6.33,5.21-1.96,1.01-3.85,1.63-5.52,1.98ZM381.03,207.57c.31-.12.67-.26,1.05-.44.43-.18.89-.4,1.38-.63,2-.94,4.33-2.14,5.9-3,2.3-1.25,2.97-1.89,3.24-3.14.28-1.24-1.92-5.52-3.52-7.92-1.61-2.4-4.99-5.26-5.96-5.65-.97-.39-1.73-.32-1.87.78-.14,1.1-1.75,5.09-2.21,6.19-.36.85-1.07,2.44-1.87,4.17-.2.42-.4.85-.59,1.27-.17.37-.34.73-.51,1.1-.14.29-.3.64-.48,1.02,1.17,2.25,2.11,4.66,2.76,7.24.84-.31,1.78-.66,2.68-1.01ZM374.15,197.05c.09-.17.18-.33.26-.49.21-.39.41-.76.59-1.12,3.36-6.37,4.08-9.55,4.08-9.55.42-1.1-.13-2.36-1.18-2.67-2.97-.85-4.55-.96-6.29-1.05-2.23-.12-6.04.28-8.94,1.45-.33.12-.64.26-.95.43-.26.12-.51.26-.75.41-.63.4-1.27,1.3-.89,1.99.09.17.19.35.27.52,5.36,2.41,9.94,6.23,13.28,11.1.18-.38.36-.72.52-1.02ZM353.18,185.71c-.41-.09-.83-.17-1.26-.23-1.56-.25-3.16-.38-4.81-.38-17.93,0-30.38,13.81-30.93,32.36-.34,11.53,6.32,20.81,14.27,26.43,1.31.93,2.67,1.76,4.03,2.49,3.83,2.04,7.74,3.24,11.15,3.44,11.09.68,20.34-3.43,26.25-10.67.77-.94,1.48-1.94,2.14-2.99.72-1.16,1.37-2.39,1.94-3.67.17-.36.31-.72.46-1.08.97-2.39,1.66-4.97,2.06-7.7.13-.91.23-1.84.3-2.78,0-.05,0-.11.02-.16.02-.4.05-.82.06-1.23,0-.17.02-.33.02-.5,0-.34,0-.67,0-1.01-.02-2.07-.22-4.12-.61-6.12-.06-.31-.12-.64-.21-.96-.11-.5-.23-1.01-.37-1.51-.04-.19-.1-.38-.16-.57-.63-2.19-1.48-4.3-2.53-6.3-.36-.7-.74-1.38-1.16-2.05-.2-.33-.4-.65-.62-.97-.05-.09-.11-.18-.17-.26-3.02-4.51-7.09-8.24-11.9-10.74-.9-.48-1.83-.91-2.78-1.28-1.67-.68-3.4-1.2-5.2-1.56ZM287.18,294.42c-6.56,4.82-13.42,9.33-20.53,13.5-16.18,9.49-33.68,17.23-51.78,23.02,12.98,2.78,26.8,4.28,41.14,4.28,75.36,0,136.45-41.47,136.45-92.62,0-4.21-.41-8.36-1.22-12.42-2.44,2.64-5.38,4.83-8.76,6.46-3.06,1.48-6.24,2.28-9.41,2.46-6.18,8.63-16.21,13.37-27.49,13.09-4.67-.12-9.09-1.21-13.08-3.12-.74.97-1.53,1.96-1.94,2.53-12.21,16.2-27.15,30.62-43.37,42.82ZM335.01,230.62c-1.32,2.99-2.41,5.33-2.59,6.34-.69,3.72-2.96,2.01-3.54,1.36-4.57-4.98-6-7.73-7.43-12.2-.92-2.87-2.11-12.41.07-12.95,1.73-.43,14.5,6.12,17.14,9.38,1.63,2-1.71,3.68-3.64,8.07ZM334.45,230.88c1.93-4.39,5.07-6.21,3.81-7.7-2.27-2.69-14.73-9.77-16.09-8.6-1.36,1.16.17,8.77.89,11.14,1.44,4.64,6.55,11.05,7.23,11.59.68.54,1.31.54,1.56-.08.37-.95,1.27-3.34,2.59-6.34ZM357.48,242.36c.45.44.54,1.07.13,1.54-.41.48-1.91,1.93-9.34,1.93-5.16,0-9.3-1.38-11.69-2.53-1.06-.5-1.77-.96-2.08-1.22-.59-.52-1.07-1.03-1.22-2.06-.11-.75-.04-1.77.27-3.25.75-3.55,4.75-9.22,5.99-10.7.35-.4,1.23-1.32,1.78-1.3.76.03,1.12.69,1.46,1.32.06.12.12.21.17.32.31.54,1.26,1.92,2.33,3.38,1.36,1.88,2.91,3.91,3.53,4.6,3.82,4.18,8.07,7.41,8.66,7.98ZM357.13,242.66c-.59-.57-3.53-3.05-7.46-7.13-1.96-2.04-3.39-4.01-4.47-5.61-1.19-1.73-1.98-3.01-2.67-3.43-.41-.26-.79-.21-1.2.26-1.22,1.4-4.99,6.79-5.91,10.35-.03.12-.06.23-.08.34-.75,3.55-.17,3.54,1.3,4.4.17.1.4.24.69.4,1.67.93,5.39,2.67,12.45,2.67,3.32,0,5-.23,6.68-.87.59-.22,1.13-.96.68-1.4ZM321.19,208.23c.51-2.93,3.41-8.15,6.39-11.29,3.66-3.86,8.88-6.6,11.27-6.91,2.16-.27,2.66,2.13,2.34,3.95-.4,2.26-.95,18.95-.88,20.78.08,2.17-1.21,4.85-3.05,3.32-2.08-1.73-12.08-6.71-13.98-7.33-1.97-.64-2.37-.87-2.08-2.52ZM325.87,209.87c2,.54,9.94,5.48,12.07,7.16,1.7,1.34,2.09-.62,2.11-2.39.02-1.83.49-18.35.76-20.63.17-1.46.43-3.15-1.74-2.86-2.39.31-6.56,2.93-10.22,6.78-2.98,3.14-4.92,6.7-5.43,9.63-.29,1.65.45,1.78,2.45,2.32Z" fill="#fefaf5"/></svg>